<svg xmlns="http://www.w3.org/2000/svg" version="1.1" xmlns:xlink="http://www.w3.org/1999/xlink" xmlns:svgjs="http://svgjs.dev/svgjs" width="1000" height="750" viewBox="0 0 1000 750"><rect width="1000" height="750" fill="#0a1627"></rect><g transform="matrix(0.834,0,0,0.834,82.49454545454546,134.540635862891)"><svg viewBox="0 0 396 247" data-background-color="#0a1627" preserveAspectRatio="xMidYMid meet" height="623" width="1000" xmlns="http://www.w3.org/2000/svg" xmlns:xlink="http://www.w3.org/1999/xlink"><g id="tight-bounds" transform="matrix(1,0,0,1,0.2400000000000091,-0.09999999999999432)"><svg viewBox="0 0 395.52 247.2" height="247.2" width="395.52"><g><svg></svg></g><g><svg viewBox="0 0 395.52 247.2" height="247.2" width="395.52"><g transform="matrix(1,0,0,1,75.54432,65.23444083054254)"><svg viewBox="0 0 244.43135999999998 116.73111833891491" height="116.73111833891491" width="244.43135999999998"><g><svg viewBox="0 0 244.43135999999998 116.73111833891491" height="116.73111833891491" width="244.43135999999998"><g><svg viewBox="0 0 244.43135999999998 116.73111833891491" height="116.73111833891491" width="244.43135999999998"><g><svg viewBox="0 0 244.43135999999998 116.73111833891491" height="116.73111833891491" width="244.43135999999998"><g id="textblocktransform"><svg viewBox="0 0 244.43135999999998 116.73111833891491" height="116.73111833891491" width="244.43135999999998" id="textblock"><g><svg viewBox="0 0 244.43135999999998 116.73111833891491" height="116.73111833891491" width="244.43135999999998"><g transform="matrix(1,0,0,1,0,0)"><svg width="244.43135999999998" viewBox="2.0999999046325684 -35.400001525878906 74.6500015258789 35.650001525878906" height="116.73111833891491" data-palette-color="#fe0039"><path d="M33.5-35.4L33.5-35.4 33.5-34.4Q31.8-34.35 30.93-33.9 30.05-33.45 29.75-32.45 29.45-31.45 29.45-29.6L29.45-29.6 29.45 0.25Q29.15 0.25 28.88 0.25 28.6 0.25 28.3 0.25L28.3 0.25 7.3-32.2 7.3-5.8Q7.3-4 7.63-2.98 7.95-1.95 8.93-1.53 9.9-1.1 11.85-1L11.85-1 11.85 0Q10.95-0.1 9.5-0.13 8.05-0.15 6.75-0.15L6.75-0.15Q5.5-0.15 4.23-0.13 2.95-0.1 2.1 0L2.1 0 2.1-1Q3.8-1.1 4.67-1.53 5.55-1.95 5.85-2.98 6.15-4 6.15-5.8L6.15-5.8 6.15-30.1Q6.15-31.95 5.85-32.83 5.55-33.7 4.67-34.02 3.8-34.35 2.1-34.4L2.1-34.4 2.1-35.4Q2.95-35.35 4.23-35.3 5.5-35.25 6.75-35.25L6.75-35.25Q7.85-35.25 8.85-35.3 9.85-35.35 10.65-35.4L10.65-35.4 28.3-8.2 28.3-29.6Q28.3-31.45 27.98-32.45 27.65-33.45 26.68-33.9 25.7-34.35 23.75-34.4L23.75-34.4 23.75-35.4Q24.65-35.35 26.13-35.3 27.6-35.25 28.85-35.25L28.85-35.25Q30.15-35.25 31.43-35.3 32.7-35.35 33.5-35.4ZM76.75-35.4L76.75-35.4 76.75-34.4Q75.05-34.35 74.17-34.02 73.3-33.7 73-32.83 72.7-31.95 72.7-30.1L72.7-30.1 72.7-5.3Q72.7-3.5 73-2.6 73.3-1.7 74.17-1.4 75.05-1.1 76.75-1L76.75-1 76.75 0Q75.6-0.1 73.87-0.13 72.15-0.15 70.4-0.15L70.4-0.15Q68.45-0.15 66.75-0.13 65.05-0.1 64 0L64 0 64-1Q65.7-1.1 66.57-1.4 67.45-1.7 67.75-2.6 68.05-3.5 68.05-5.3L68.05-5.3 68.05-32.8 68.25-32.65 56 0.25 55.2 0.25 42.6-32.2 42.6-5.8Q42.6-4 42.92-2.98 43.25-1.95 44.22-1.53 45.2-1.1 47.15-1L47.15-1 47.15 0Q46.25-0.1 44.8-0.13 43.35-0.15 42.05-0.15L42.05-0.15Q40.8-0.15 39.52-0.13 38.25-0.1 37.4 0L37.4 0 37.4-1Q39.1-1.1 39.97-1.53 40.85-1.95 41.15-2.98 41.45-4 41.45-5.8L41.45-5.8 41.45-30.1Q41.45-31.95 41.15-32.83 40.85-33.7 39.97-34.02 39.1-34.35 37.4-34.4L37.4-34.4 37.4-35.4Q38.25-35.35 39.52-35.3 40.8-35.25 42.05-35.25L42.05-35.25Q43.15-35.25 44.32-35.3 45.5-35.35 46.3-35.4L46.3-35.4 57.65-5.5 56.8-5.1 68.05-35.25Q68.65-35.25 69.22-35.25 69.8-35.25 70.4-35.25L70.4-35.25Q72.15-35.25 73.87-35.3 75.6-35.35 76.75-35.4Z" opacity="1" transform="matrix(1,0,0,1,0,0)" fill="#fe0039" class="undefined-text-0" data-fill-palette-color="primary" id="text-0"></path></svg></g></svg></g></svg></g></svg></g><g></g></svg></g></svg></g></svg></g><g><path d="M110.847 37.677A122.216 122.216 0 0 1 284.673 37.677L274.146 37.677A111.689 111.689 0 0 0 121.374 37.677L110.847 37.677M110.847 209.523A122.216 122.216 0 0 0 284.673 209.523L274.146 209.523A111.689 111.689 0 0 1 121.374 209.523L110.847 209.523" fill="#fe0039" stroke="transparent" data-fill-palette-color="tertiary"></path></g></svg></g><defs></defs></svg><rect width="395.52" height="247.2" fill="none" stroke="none" visibility="hidden"></rect></g></svg></g></svg>